<svg id="图层_1" data-name="图层 1" xmlns="http://www.w3.org/2000/svg" viewBox="0 0 65.53 72.73"><defs><style>.cls-1,.cls-2{fill:#a9343e;}.cls-2{fill-rule:evenodd;}</style></defs><title>qiyuan</title><circle class="cls-1" cx="32.76" cy="6.3" r="6.3"/><path class="cls-2" d="M369.92,646.34h10V656.9a22.43,22.43,0,0,0-10-.22V646.34Zm10,14.32V684c-2.79,1.7-6.6,1.52-10-.29V660.37c2.54-1.89,6.83-1.45,10,.29Zm0,27.49v16.18h-10V687.68A18.1,18.1,0,0,0,380,688.15Z" transform="translate(-342.18 -631.6)"/><path class="cls-2" d="M366.95,697.2c-14.23-2.83-24.76-13-24.76-25.2s10.54-22.37,24.76-25.2v8.6c-8.81,2.49-15.09,9-15.09,16.59s6.28,14.1,15.09,16.59Z" transform="translate(-342.18 -631.6)"/><path class="cls-2" d="M382.95,646.8c14.23,2.83,24.76,13,24.76,25.2s-10.54,22.37-24.76,25.2v-8.6c8.81-2.49,15.09-9,15.09-16.59s-6.28-14.1-15.09-16.59Z" transform="translate(-342.18 -631.6)"/><path class="cls-1" d="M364.16,686.29l-1-8.21c-.06-.39.38-.48,1-.33a15.77,15.77,0,0,0,4.43,6.06c4.12,3.33,13.32,3.35,13.57-2.63a4.4,4.4,0,0,0-1-3v-6.25a13.31,13.31,0,0,1,5.09,3.44,6.56,6.56,0,0,1,1.33,4.4c-.31,7.61-10.24,9.05-17.46,7.15-1.7-.45-2.63-.67-2.8-.68s-1.9-.65-2.28.25l-.45,0c-.31,0-.41,0-.47-.2ZM380,677v-5.57c-3.6-1.52-7.68-2.87-10-4.86v5.56c3.48,1.58,7.54,2.86,10,4.87Zm-11.28-5.46a12.24,12.24,0,0,1-4.18-3.08,6.27,6.27,0,0,1-1.39-4.26c.29-7,10.43-8.36,16.77-6.36,1,.32,4.17,1.63,4.65,0H385c.57,0,.5.09.53.45l.35,7.42c0,.5-.18.53-1,.5a13.12,13.12,0,0,0-3.72-5.62c-3.44-2.9-12.91-3.35-13.13,2.07a4.16,4.16,0,0,0,.75,2.57Z" transform="translate(-342.18 -631.6)"/></svg>